<svg xmlns="http://www.w3.org/2000/svg" width="1024" height="1024" viewBox="1330 -28.7 1024 1024"><path fill="#27BCF3" d="M1582.3 208.4L1808.6-18"/><path fill="#0079AA" d="M2045.6 680.6l66.3-66.2-66.8 66.2z"/><path fill="#4787C7" d="M2278.2 913.2V460.7l-160 160L2052 687"/><path fill="#5A9FD2" d="M2052 212.8l88.4 88.5L2278.2 439V-13.3"/><path fill="#5B9FD2" d="M1345.3-19.7l226.2 226.2 226.3-226.2"/><path fill="#5A9FD2" d="M1808.6 443.6l226.2-226.3h-452.5"/><path fill="#5B9FD2" d="M1808.6-18l-226.3 226.4h452.5"/><path fill="#4A95CD" d="M1819.4 454.4l226.2 226.2 66.3-66.2 160-160"/><path fill="#559BD0" d="M1819.4 445.4H2272L2122.2 296l-76.7-76.8"/><path fill="#0096D3" d="M2272 445.4L2122.2 296 2272 445.3"/><path fill="#FEC841" d="M1405.7 53.4V506L1632 279.5"/><path fill="#FED349" d="M1405.7 527.5V980L1632 753.8l-66.3-66.3"/><path fill="#FED34A" d="M2112.4 760l-226.2 226.4h452.5"/><path fill="#FED349" d="M2101.6 749.3L1875.4 523 1649 749.3"/><path fill="#FED34A" d="M1649 758.3l226.4 226.2 226.2-226.2"/><path fill="#FECE42" d="M1864.5 512.2L1638.3 286 1412 512.2"/><path fill="#FED144" d="M1412 521.2l226.3 226.3 226.2-226.3"/><path fill="#CC382F" d="M1638.2 747.4L1412 521.2"/><path fill="#323232" d="M2352.7 987.7l-65.5-65.5V-24.3c0-1.8-1-3.5-2.8-4.2-1.7-.6-3.6-.3-5 1l-233.8 234-234-234c-.7-.8-1.8-1.3-3-1.3h-474c-1 0-2.4.4-3.3 1.3-1 1-1.3 2-1.3 3.2 0 1 .4 2.3 1.3 3.2l65.5 65v946.3c0 2 1 3.6 2.7 4.3l1.7.2c1.2 0 2.3-.5 3.2-1.4l234-234L1872 994c1 .8 2 1.3 3.2 1.3h474c2 0 3.5-1 4.2-2.8.7-1.6.3-3.6-1-4.8zm-466.5-1.3L2112.4 760l226.3 226.4h-452.5zM1632 753.8L1405.7 980V527.5l160 160 66.3 66.3zm420-541l226.2-226.2V439l-137.8-137.7-88.4-88.5zm220 232.6h-452.6l226.2-226.2 76.7 76.7L2272 445zm-463.4-1.8l-226.3-226.3h452.5l-226.2 226.3zM1638.3 286l226.2 226.2H1412L1638.3 286zm181 168.4H2272l-160 160-66.4 66.2-226.2-226.2zm56 68.6l226.3 226.3H1649L1875.5 523zm-10.8-1.8l-226.2 226.3L1412 521.2h452.5zm413.7 392L2052 687l66.2-66.3 160-160v452.5zm-696-704.8L1808.7-18 2035 208.4h-452.6zm-176.5-155L1632 279.6 1405.7 506V53.3zm696 705l-226.3 226-226.3-226h453zm-756.4-778h452.5l-226.3 226-226.2-226z"/></svg>