<?xml version="1.0" encoding="utf-8"?>
<!DOCTYPE svg PUBLIC "-//W3C//DTD SVG 1.1//EN" "http://www.w3.org/Graphics/SVG/1.1/DTD/svg11.dtd">
<svg version="1.1" id="Layer_1" xmlns="http://www.w3.org/2000/svg" xmlns:xlink="http://www.w3.org/1999/xlink" x="0px" y="0px"
	 width="1024px" height="1024px" viewBox="0 0 1024 1024" enable-background="new 0 0 1024 1024" xml:space="preserve">
<polygon fill="#FDD050" points="729.197,715.747 943.33,929.879 943.33,501.521 791.865,652.985 "/>
<polygon fill="#FDD050" points="943.33,455.685 943.33,27.421 729.198,241.552 814.066,326.516 "/>
<polygon fill="#3771A0" points="455.847,14.15 27.508,14.15 241.63,228.083 "/>
<polygon fill="#3771A0" points="264.5,251.05 478.729,465.278 692.862,251.05 "/>
<polygon fill="#3771A0" points="264.404,232.15 693.062,232.15 478.828,17.821 "/>
<polygon fill="#FDD050" points="501.601,488.15 715.734,702.284 778.599,639.609 930.058,488.15 "/>
<polygon fill="#FDD050" points="930.426,469.15 788.901,328.192 715.729,255.021 501.601,469.15 "/>
<polygon fill="#3771A0" points="80.83,94.217 80.83,522.675 295.059,308.352 "/>
<polygon fill="#3771A0" points="80.83,996.683 295.058,782.549 80.83,568.321 "/>
<polygon fill="#FDD050" points="996.763,1010.15 782.53,795.823 568.394,1010.15 "/>
<polygon fill="#FDD050" points="331.208,773.05 759.657,773.05 545.527,558.919 "/>
<polygon fill="#FDD050" points="759.748,792.15 331.312,792.15 545.529,1006.084 "/>
<polygon fill="#3771A0" points="522.558,535.95 308.428,321.82 94.204,535.95 "/>
<polygon fill="#3771A0" points="94.201,554.95 308.428,769.178 522.562,554.95 "/>
</svg>
